<?xml version="1.0" encoding="us-ascii" standalone="no"?><svg xmlns="http://www.w3.org/2000/svg" xmlns:xlink="http://www.w3.org/1999/xlink" contentStyleType="text/css" height="1138px" preserveAspectRatio="none" style="width:1130px;height:1138px;background:#FFFFFF;" version="1.1" viewBox="0 0 1130 1138" width="1130px" zoomAndPan="magnify"><defs/><g><!--cluster model--><g id="cluster_model"><polygon fill="none" points="16,6.602,64,6.602,71,31.6699,1113,31.6699,1113,1131.602,16,1131.602,16,6.602" style="stroke:#000000;stroke-width:1.5;"/><line style="stroke:#000000;stroke-width:1.5;" x1="16" x2="71" y1="31.6699" y2="31.6699"/><text fill="#000000" font-family="sans-serif" font-size="14" font-weight="bold" lengthAdjust="spacing" textLength="42" x="20" y="23.5679">model</text></g><!--class Pawn--><g id="elem_Pawn"><rect codeLine="6" fill="#F1F1F1" height="189.6113" id="Pawn" rx="2.5" ry="2.5" style="stroke:#181818;stroke-width:0.5;" width="78" x="801" y="925.602"/><text fill="#000000" font-family="sans-serif" font-size="14" lengthAdjust="spacing" textLength="36" x="822" y="945.5679">Pawn</text><line style="stroke:#181818;stroke-width:0.5;" x1="802" x2="878" y1="954.6699" y2="954.6699"/><text fill="#000000" font-family="sans-serif" font-size="14" lengthAdjust="spacing" textLength="35" x="807" y="973.6358">+RED</text><text fill="#000000" font-family="sans-serif" font-size="14" lengthAdjust="spacing" textLength="54" x="807" y="992.7038">+GREEN</text><text fill="#000000" font-family="sans-serif" font-size="14" lengthAdjust="spacing" textLength="62" x="807" y="1011.7717">+YELLOW</text><text fill="#000000" font-family="sans-serif" font-size="14" lengthAdjust="spacing" textLength="42" x="807" y="1030.8396">+BLUE</text><text fill="#000000" font-family="sans-serif" font-size="14" lengthAdjust="spacing" textLength="51" x="807" y="1049.9075">+BLACK</text><text fill="#000000" font-family="sans-serif" font-size="14" lengthAdjust="spacing" textLength="66" x="807" y="1068.9754">+ORANGE</text><text fill="#000000" font-family="sans-serif" font-size="14" lengthAdjust="spacing" textLength="58" x="807" y="1088.0433">+PURPLE</text><text fill="#000000" font-family="sans-serif" font-size="14" lengthAdjust="spacing" textLength="41" x="807" y="1107.1113">+PINK</text></g><!--class Round--><g id="elem_Round"><rect codeLine="17" fill="#F1F1F1" height="254.815" id="Round" rx="2.5" ry="2.5" style="stroke:#181818;stroke-width:0.5;" width="649" x="430.5" y="380.602"/><text fill="#000000" font-family="sans-serif" font-size="14" lengthAdjust="spacing" textLength="44" x="733" y="400.5679">Round</text><line style="stroke:#181818;stroke-width:0.5;" x1="431.5" x2="1078.5" y1="409.6699" y2="409.6699"/><text fill="#000000" font-family="sans-serif" font-size="14" lengthAdjust="spacing" text-decoration="underline" textLength="176" x="436.5" y="428.6358">-attemptNumber : Integer</text><text fill="#000000" font-family="sans-serif" font-size="14" lengthAdjust="spacing" text-decoration="underline" textLength="160" x="436.5" y="447.7038">-pawnNumber : Integer</text><text fill="#000000" font-family="sans-serif" font-size="14" lengthAdjust="spacing" textLength="103" x="436.5" y="466.7717">-score : Integer</text><line style="stroke:#181818;stroke-width:0.5;" x1="431.5" x2="1078.5" y1="474.8736" y2="474.8736"/><text fill="#000000" font-family="sans-serif" font-size="14" lengthAdjust="spacing" textLength="394" x="436.5" y="493.8396">+Round(attemptNumber : Integer, pawnNumber : Integer)</text><text fill="#000000" font-family="sans-serif" font-size="14" lengthAdjust="spacing" text-decoration="underline" textLength="317" x="436.5" y="512.9075">+setAttemptNumber(attemptNumber : Integer)</text><text fill="#000000" font-family="sans-serif" font-size="14" lengthAdjust="spacing" text-decoration="underline" textLength="283" x="436.5" y="531.9754">+setPawnNumber(pawnNumber : Integer)</text><text fill="#000000" font-family="sans-serif" font-size="14" lengthAdjust="spacing" textLength="383" x="436.5" y="551.0433">+generateHintLine(combination : Combination) : HintLine</text><text fill="#000000" font-family="sans-serif" font-size="14" lengthAdjust="spacing" textLength="290" x="436.5" y="570.1113">+checkAttempt(combination : Combination)</text><text fill="#000000" font-family="sans-serif" font-size="14" lengthAdjust="spacing" textLength="137" x="436.5" y="589.1792">+getScore() : Integer</text><text fill="#000000" font-family="sans-serif" font-size="14" lengthAdjust="spacing" textLength="637" x="436.5" y="608.2471">-createSecretCombination(combinationLenght : Integer, pawnNumber : Integer) : Combination</text><text fill="#000000" font-family="sans-serif" font-size="14" lengthAdjust="spacing" textLength="226" x="436.5" y="627.315">-notifyEndGame(victory : Boolean)</text></g><!--class Combination--><g id="elem_Combination"><rect codeLine="31" fill="#F1F1F1" height="121.3396" id="Combination" rx="2.5" ry="2.5" style="stroke:#181818;stroke-width:0.5;" width="216" x="261" y="960.102"/><text fill="#000000" font-family="sans-serif" font-size="14" lengthAdjust="spacing" textLength="86" x="326" y="980.0679">Combination</text><line style="stroke:#181818;stroke-width:0.5;" x1="262" x2="476" y1="989.1699" y2="989.1699"/><text fill="#000000" font-family="sans-serif" font-size="14" lengthAdjust="spacing" text-decoration="underline" textLength="198" x="267" y="1008.1358">-combinationLenght : Integer</text><line style="stroke:#181818;stroke-width:0.5;" x1="262" x2="476" y1="1016.2378" y2="1016.2378"/><text fill="#000000" font-family="sans-serif" font-size="14" lengthAdjust="spacing" textLength="204" x="267" y="1035.2038">+Combination(pawns : Pawn[])</text><text fill="#000000" font-family="sans-serif" font-size="14" lengthAdjust="spacing" textLength="139" x="267" y="1054.2717">+getPawns() : Pawn[]</text><text fill="#000000" font-family="sans-serif" font-size="14" lengthAdjust="spacing" textLength="181" x="267" y="1073.3396">+setPawns(pawns : Pawn[])</text></g><!--class HintLine--><g id="elem_HintLine"><rect codeLine="38" fill="#F1F1F1" height="75.2038" id="HintLine" rx="2.5" ry="2.5" style="stroke:#181818;stroke-width:0.5;" width="167" x="671.5" y="743.102"/><text fill="#000000" font-family="sans-serif" font-size="14" lengthAdjust="spacing" textLength="56" x="727" y="763.0679">HintLine</text><line style="stroke:#181818;stroke-width:0.5;" x1="672.5" x2="837.5" y1="772.1699" y2="772.1699"/><text fill="#000000" font-family="sans-serif" font-size="14" lengthAdjust="spacing" textLength="155" x="677.5" y="791.1358">+setHints(hints : Hint[])</text><text fill="#000000" font-family="sans-serif" font-size="14" lengthAdjust="spacing" textLength="123" x="677.5" y="810.2038">+getHints() : Hint[]</text></g><!--class AttemptLine--><g id="elem_AttemptLine"><rect codeLine="43" fill="#F1F1F1" height="132.4075" id="AttemptLine" rx="2.5" ry="2.5" style="stroke:#181818;stroke-width:0.5;" width="395" x="171.5" y="714.602"/><text fill="#000000" font-family="sans-serif" font-size="14" lengthAdjust="spacing" textLength="82" x="328" y="734.5679">AttemptLine</text><line style="stroke:#181818;stroke-width:0.5;" x1="172.5" x2="565.5" y1="743.6699" y2="743.6699"/><text fill="#000000" font-family="sans-serif" font-size="14" lengthAdjust="spacing" textLength="383" x="177.5" y="762.6358">+Attempt(combination : Combination, hintLine : HintLine)</text><text fill="#000000" font-family="sans-serif" font-size="14" lengthAdjust="spacing" textLength="304" x="177.5" y="781.7038">+setCombination(combination : Combination)</text><text fill="#000000" font-family="sans-serif" font-size="14" lengthAdjust="spacing" textLength="215" x="177.5" y="800.7717">+setHintLine(hintLine : HintLine)</text><text fill="#000000" font-family="sans-serif" font-size="14" lengthAdjust="spacing" textLength="222" x="177.5" y="819.8396">+getCombination() : Combination</text><text fill="#000000" font-family="sans-serif" font-size="14" lengthAdjust="spacing" textLength="162" x="177.5" y="838.9075">+getHintLine() : HintLine</text></g><!--class RoundObserver--><g id="elem_RoundObserver"><rect codeLine="52" fill="#F1F1F1" height="56.1358" id="RoundObserver" rx="2.5" ry="2.5" style="stroke:#181818;stroke-width:0.5;" width="253" x="533.5" y="44.602"/><text fill="#000000" font-family="sans-serif" font-size="14" font-style="italic" lengthAdjust="spacing" textLength="97" x="611.5" y="64.5679">RoundObserver</text><line style="stroke:#181818;stroke-width:0.5;" x1="534.5" x2="785.5" y1="73.6699" y2="73.6699"/><text fill="#000000" font-family="sans-serif" font-size="14" lengthAdjust="spacing" textLength="241" x="539.5" y="92.6358">+reactToEndGame(victory : Boolean)</text></g><!--class Game--><g id="elem_Game"><rect codeLine="56" fill="#F1F1F1" height="140.4075" id="Game" rx="2.5" ry="2.5" style="stroke:#181818;stroke-width:0.5;" width="307" x="695.5" y="161.602"/><text fill="#000000" font-family="sans-serif" font-size="14" lengthAdjust="spacing" textLength="39" x="829.5" y="181.5679">Game</text><line style="stroke:#181818;stroke-width:0.5;" x1="696.5" x2="1001.5" y1="190.6699" y2="190.6699"/><text fill="#000000" font-family="sans-serif" font-size="14" lengthAdjust="spacing" text-decoration="underline" textLength="164" x="701.5" y="209.6358">-roundNumber : Integer</text><line style="stroke:#181818;stroke-width:0.5;" x1="696.5" x2="1001.5" y1="217.7378" y2="217.7378"/><text fill="#000000" font-family="sans-serif" font-size="14" lengthAdjust="spacing" text-decoration="underline" textLength="295" x="701.5" y="236.7038">+setRoundNumber(roundNumber : Integer)</text><text fill="#000000" font-family="sans-serif" font-size="14" lengthAdjust="spacing" textLength="86" x="701.5" y="255.7717">+startGame()</text><text fill="#000000" font-family="sans-serif" font-size="14" lengthAdjust="spacing" textLength="86" x="701.5" y="274.8396">-nextRound()</text><text fill="#000000" font-family="sans-serif" font-size="14" lengthAdjust="spacing" textLength="169" x="701.5" y="293.9075">+getFinalScore() : Integer</text></g><!--class Hint--><g id="elem_Hint"><rect codeLine="64" fill="#F1F1F1" height="94.2717" id="Hint" rx="2.5" ry="2.5" style="stroke:#181818;stroke-width:0.5;" width="121" x="938.5" y="733.602"/><text fill="#000000" font-family="sans-serif" font-size="14" lengthAdjust="spacing" textLength="28" x="985" y="753.5679">Hint</text><line style="stroke:#181818;stroke-width:0.5;" x1="939.5" x2="1058.5" y1="762.6699" y2="762.6699"/><text fill="#000000" font-family="sans-serif" font-size="14" lengthAdjust="spacing" textLength="97" x="944.5" y="781.6358">+RIGHT_PLACE</text><text fill="#000000" font-family="sans-serif" font-size="14" lengthAdjust="spacing" textLength="109" x="944.5" y="800.7038">+WRONG_PLACE</text><text fill="#000000" font-family="sans-serif" font-size="14" lengthAdjust="spacing" textLength="61" x="944.5" y="819.7717">+ABSENT</text></g><!--reverse link RoundObserver to Game--><g id="link_RoundObserver_Game"><path d="M708.39,113.802 C725.85,128.302 746.1,145.122 765.7,161.402 " fill="none" id="RoundObserver-backto-Game" style="stroke:#181818;stroke-width:1.0;stroke-dasharray:7.0,7.0;"/><polygon fill="none" points="703.83,119.112,692.92,100.952,712.78,108.342,703.83,119.112" style="stroke:#181818;stroke-width:1.0;"/></g><!--link RoundObserver to Round--><g id="link_RoundObserver_Round"><path codeLine="70" d="M634.24,111.972 C625.72,126.812 617.31,144.362 613,161.602 C597.89,221.962 594.47,242.202 613,301.602 C620.23,324.782 631.09,347.652 643.65,369.242 " fill="none" id="RoundObserver-Round" style="stroke:#181818;stroke-width:1.0;"/><polygon fill="#181818" points="641.02,100.692,632.9542,106.3438,638.4435,104.977,639.8103,110.4663,641.02,100.692" style="stroke:#181818;stroke-width:1.0;"/><line style="stroke:#181818;stroke-width:1.0;" x1="638.4435" x2="634.32" y1="104.977" y2="111.837"/><polygon fill="none" points="650.36,380.402,650.703,373.199,644.1861,370.1121,643.8431,377.315,650.36,380.402" style="stroke:#181818;stroke-width:1.0;"/><polygon fill="#000000" points="618.1828,236.9516,620.7891,227.8052,614.9152,228.02,618.1828,236.9516" style="stroke:#000000;stroke-width:1.0;"/><text fill="#000000" font-family="sans-serif" font-size="13" lengthAdjust="spacing" textLength="50" x="627" y="236.999">Observe</text><text fill="#000000" font-family="sans-serif" font-size="13" lengthAdjust="spacing" textLength="7" x="597.0283" y="122.7343">*</text><text fill="#000000" font-family="sans-serif" font-size="13" lengthAdjust="spacing" textLength="63" x="569.0283" y="140.4403">-observers</text></g><!--link Round to Combination--><g id="link_Round_Combination"><path codeLine="71" d="M417.36,573.712 C272.91,608.852 127.61,656.972 85,714.602 C50.12,761.782 56.27,795.452 85,846.602 C120.12,909.122 188.03,951.702 248.63,978.972 " fill="none" id="Round-Combination" style="stroke:#181818;stroke-width:1.0;"/><polygon fill="#181818" points="430.43,570.562,423.6606,568.077,418.7631,573.3699,425.5326,575.8549,430.43,570.562" style="stroke:#181818;stroke-width:1.0;"/><polygon fill="#181818" points="260.64,984.222,253.9988,976.9491,256.0595,982.2173,250.7913,984.278,260.64,984.222" style="stroke:#181818;stroke-width:1.0;"/><line style="stroke:#181818;stroke-width:1.0;" x1="256.0595" x2="248.735" y1="982.2173" y2="979.022"/><polygon fill="#000000" points="88.0782,785.5709,94.268,778.3503,88.8416,776.091,88.0782,785.5709" style="stroke:#000000;stroke-width:1.0;"/><text fill="#000000" font-family="sans-serif" font-size="13" lengthAdjust="spacing" textLength="54" x="99" y="785.999">conserve</text><text fill="#000000" font-family="sans-serif" font-size="13" lengthAdjust="spacing" textLength="7" x="190.5565" y="960.6792">1</text><text fill="#000000" font-family="sans-serif" font-size="13" lengthAdjust="spacing" textLength="118" x="135.0565" y="978.3852">-secretCombination</text></g><!--link Round to AttemptLine--><g id="link_Round_AttemptLine"><path codeLine="72" d="M563.47,643.322 C532.25,665.202 500.98,687.112 472.93,706.772 " fill="none" id="Round-AttemptLine" style="stroke:#181818;stroke-width:1.0;"/><polygon fill="none" points="574.43,635.642,567.221,635.8156,564.6085,642.5368,571.8175,642.3632,574.43,635.642" style="stroke:#181818;stroke-width:1.0;"/><polygon fill="#181818" points="461.93,714.472,471.5961,712.5834,466.0249,711.6028,467.0054,706.0316,461.93,714.472" style="stroke:#181818;stroke-width:1.0;"/><line style="stroke:#181818;stroke-width:1.0;" x1="466.0249" x2="472.58" y1="711.6028" y2="707.017"/><polygon fill="#000000" points="536.0946,672.5855,527.0007,675.3697,530.374,680.1832,536.0946,672.5855" style="stroke:#000000;stroke-width:1.0;"/><text fill="#000000" font-family="sans-serif" font-size="13" lengthAdjust="spacing" textLength="56" x="541" y="680.499">constitue</text><text fill="#000000" font-family="sans-serif" font-size="13" lengthAdjust="spacing" textLength="40" x="418.6739" y="685.1369">10 .. 12</text><text fill="#000000" font-family="sans-serif" font-size="13" lengthAdjust="spacing" textLength="59" x="409.1739" y="702.8429">-attempts</text></g><!--link AttemptLine to HintLine--><g id="link_AttemptLine_HintLine"><path codeLine="73" d="M579.91,780.602 C607.19,780.602 633.98,780.602 658.09,780.602 " fill="none" id="AttemptLine-HintLine" style="stroke:#181818;stroke-width:1.0;"/><polygon fill="none" points="566.52,780.602,572.52,784.602,578.52,780.602,572.52,776.602,566.52,780.602" style="stroke:#181818;stroke-width:1.0;"/><polygon fill="#181818" points="671.19,780.602,662.19,776.602,666.19,780.602,662.19,784.602,671.19,780.602" style="stroke:#181818;stroke-width:1.0;"/><line style="stroke:#181818;stroke-width:1.0;" x1="666.19" x2="658.19" y1="780.602" y2="780.602"/><polygon fill="#000000" points="584,768.455,593.0451,771.3939,593.0451,765.5161,584,768.455" style="stroke:#000000;stroke-width:1.0;"/><text fill="#000000" font-family="sans-serif" font-size="13" lengthAdjust="spacing" textLength="55" x="598" y="773.499">compose</text><text fill="#000000" font-family="sans-serif" font-size="13" lengthAdjust="spacing" textLength="7" x="633.4338" y="795.7368">1</text><text fill="#000000" font-family="sans-serif" font-size="13" lengthAdjust="spacing" textLength="53" x="610.4338" y="813.4428">-hintLine</text></g><!--link Round to HintLine--><g id="link_Round_HintLine"><path codeLine="74" d="M755,635.642 C755,672.532 755,710.292 755,737.882 " fill="none" id="Round-to-HintLine" style="stroke:#181818;stroke-width:1.0;stroke-dasharray:7.0,7.0;"/><polygon fill="#181818" points="755,742.912,759,733.912,755,737.912,751,733.912,755,742.912" style="stroke:#181818;stroke-width:1.0;"/><text fill="#000000" font-family="sans-serif" font-size="13" lengthAdjust="spacing" textLength="41" x="710.2203" y="731.339">&#171;uses&#187;</text></g><!--link Round to Hint--><g id="link_Round_Hint"><path codeLine="75" d="M869.14,635.642 C899.17,668.932 929.83,702.922 953.82,729.512 " fill="none" id="Round-to-Hint" style="stroke:#181818;stroke-width:1.0;stroke-dasharray:7.0,7.0;"/><polygon fill="#181818" points="957.31,733.382,954.2625,724.0165,953.9652,729.6655,948.3161,729.3682,957.31,733.382" style="stroke:#181818;stroke-width:1.0;"/><text fill="#000000" font-family="sans-serif" font-size="13" lengthAdjust="spacing" textLength="41" x="906.7872" y="721.7801">&#171;uses&#187;</text></g><!--link Round to Pawn--><g id="link_Round_Pawn"><path codeLine="76" d="M1011.72,635.662 C1037.74,658.432 1060.58,684.652 1077,714.602 C1105.2,766.052 1103.58,794.302 1077,846.602 C1036.6,926.112 940.61,977.782 883.96,1002.502 " fill="none" id="Round-to-Pawn" style="stroke:#181818;stroke-width:1.0;stroke-dasharray:7.0,7.0;"/><polygon fill="#181818" points="879.28,1004.532,889.1281,1004.6522,883.8735,1002.5572,885.9685,997.3026,879.28,1004.532" style="stroke:#181818;stroke-width:1.0;"/><text fill="#000000" font-family="sans-serif" font-size="13" lengthAdjust="spacing" textLength="41" x="886.9393" y="998.3511">&#171;uses&#187;</text></g><!--link HintLine to Hint--><g id="link_HintLine_Hint"><path codeLine="77" d="M851.85,780.602 C876.2,780.602 901.95,780.602 924.98,780.602 " fill="none" id="HintLine-Hint" style="stroke:#181818;stroke-width:1.0;"/><polygon fill="none" points="838.63,780.602,844.63,784.602,850.63,780.602,844.63,776.602,838.63,780.602" style="stroke:#181818;stroke-width:1.0;"/><polygon fill="#181818" points="938.2,780.602,929.2,776.602,933.2,780.602,929.2,784.602,938.2,780.602" style="stroke:#181818;stroke-width:1.0;"/><line style="stroke:#181818;stroke-width:1.0;" x1="933.2" x2="925.2" y1="780.602" y2="780.602"/><polygon fill="#000000" points="866,768.455,856.9549,765.5161,856.9549,771.3939,866,768.455" style="stroke:#000000;stroke-width:1.0;"/><text fill="#000000" font-family="sans-serif" font-size="13" lengthAdjust="spacing" textLength="50" x="870" y="773.499">contient</text><text fill="#000000" font-family="sans-serif" font-size="13" lengthAdjust="spacing" textLength="26" x="902.3831" y="796.3109">4 .. 6</text><text fill="#000000" font-family="sans-serif" font-size="13" lengthAdjust="spacing" textLength="30" x="900.3831" y="814.0169">hints</text></g><!--link AttemptLine to Combination--><g id="link_AttemptLine_Combination"><path codeLine="78" d="M369,859.812 C369,887.812 369,919.252 369,946.782 " fill="none" id="AttemptLine-Combination" style="stroke:#181818;stroke-width:1.0;"/><polygon fill="none" points="369,846.632,365,852.632,369,858.632,373,852.632,369,846.632" style="stroke:#181818;stroke-width:1.0;"/><polygon fill="#181818" points="369,959.952,373,950.952,369,954.952,365,950.952,369,959.952" style="stroke:#181818;stroke-width:1.0;"/><line style="stroke:#181818;stroke-width:1.0;" x1="369" x2="369" y1="954.952" y2="946.952"/><polygon fill="#000000" points="374,881.455,371.0611,890.5001,376.9389,890.5001,374,881.455" style="stroke:#000000;stroke-width:1.0;"/><text fill="#000000" font-family="sans-serif" font-size="13" lengthAdjust="spacing" textLength="55" x="383" y="891.499">compose</text><text fill="#000000" font-family="sans-serif" font-size="13" lengthAdjust="spacing" textLength="7" x="431.1359" y="930.7935">1</text><text fill="#000000" font-family="sans-serif" font-size="13" lengthAdjust="spacing" textLength="119" x="375.1359" y="948.4995">-playerCombination</text></g><!--link Game to Round--><g id="link_Game_Round"><path codeLine="79" d="M821.06,314.202 C815.24,331.202 808.95,349.572 802.64,367.982 " fill="none" id="Game-Round" style="stroke:#181818;stroke-width:1.0;"/><polygon fill="#181818" points="825.28,301.872,819.5512,306.2516,821.3905,313.2241,827.1193,308.8446,825.28,301.872" style="stroke:#181818;stroke-width:1.0;"/><polygon fill="#181818" points="798.39,380.392,805.0837,373.1674,800.0057,375.6602,797.5129,370.5823,798.39,380.392" style="stroke:#181818;stroke-width:1.0;"/><line style="stroke:#181818;stroke-width:1.0;" x1="800.0057" x2="802.605" y1="375.6602" y2="368.092"/><polygon fill="#000000" points="816.3799,346.1852,822.0911,338.5804,816.5304,336.6759,816.3799,346.1852" style="stroke:#000000;stroke-width:1.0;"/><text fill="#000000" font-family="sans-serif" font-size="13" lengthAdjust="spacing" textLength="50" x="827" y="346.499">contient</text><text fill="#000000" font-family="sans-serif" font-size="13" lengthAdjust="spacing" textLength="26" x="763.0399" y="350.9113">3 .. 5</text><text fill="#000000" font-family="sans-serif" font-size="13" lengthAdjust="spacing" textLength="47" x="752.5399" y="368.6173">-rounds</text></g><!--link Combination to Pawn--><g id="link_Combination_Pawn"><path codeLine="80" d="M490.31,1020.602 C586.66,1020.602 716.65,1020.602 787.9,1020.602 " fill="none" id="Combination-Pawn" style="stroke:#181818;stroke-width:1.0;"/><polygon fill="none" points="477.06,1020.602,483.06,1024.602,489.06,1020.602,483.06,1016.602,477.06,1020.602" style="stroke:#181818;stroke-width:1.0;"/><polygon fill="#181818" points="800.92,1020.602,791.92,1016.602,795.92,1020.602,791.92,1024.602,800.92,1020.602" style="stroke:#181818;stroke-width:1.0;"/><line style="stroke:#181818;stroke-width:1.0;" x1="795.92" x2="787.92" y1="1020.602" y2="1020.602"/><polygon fill="#000000" points="604,1008.455,613.0451,1011.3939,613.0451,1005.5161,604,1008.455" style="stroke:#000000;stroke-width:1.0;"/><text fill="#000000" font-family="sans-serif" font-size="13" lengthAdjust="spacing" textLength="55" x="618" y="1013.499">compose</text><text fill="#000000" font-family="sans-serif" font-size="13" lengthAdjust="spacing" textLength="26" x="758.6582" y="997.3081">4 .. 6</text><text fill="#000000" font-family="sans-serif" font-size="13" lengthAdjust="spacing" textLength="43" x="750.1582" y="1015.0141">-Pawns</text></g><!--SRC=[ZLHjRzem4FwUNs7nANG5jNlxW10IxJAAYW25LjMqJbC8LuYQs2Xskh6g_trdnp5s6cZv46pVtNFFlVB7X6wZFCe85xiKy9idiIYorED64gSHvqE1acKXO1mpkaZ-0JdpDiaA2D0Y8nc83Ljn_P9jnGwViYNatFDA1RQ2j3kF_b3ox17yVI1Xy4sVHc4GJFNvHp2PpExqvM9o6vZZyF9QdsVXS3gg1FFRS3unb_7qsdlnF4LPEmrPGLVQQuSySn6997uXaH2IwBIGD4cFZAc0DUHrjIrIFg33OvP3xHN3akxy0-YdZNXjRMgSSX136-0GN9FXt3ZmZ_bQ0uKy4d2LK359AFWnovO9HHX6KVjoVslZjTBInl46uaVDy8YXSIKMCbL- -rKAunoGmmBmNrYMDkO4w7eZtaoXwrh3KoQIXrr0LwCe0_y9EvlbEzIyO2o520dMMiL2UDqmHpZfGEq894cE6h8SFtzPgP0FNAMY56a9hoHrmnh5gX9cZD1Gld5_8x-wLex7KjmseZgaBgI3-cPnJyccOh9lZ_QUqu5gDdU8Za7ruH7OjGlRL7CJiC9oMbU6ZMV87w8OxDqmMtB8dx2Rgk2nAMDnmzxVDrAD9DasXGna4Gw3M_sKIt7ZQd47Ejph-Oqs9eiYoeLYtAxw7_wMvhwLmk-Oh_JrGBuucrfcRR-fnwEhczzptC3LdhqBPzEHypAyM0JJ6ubYRrtMIJi3qZgvfnsc4y5RZUdf4NqaVGVXHDgVepslBubMmz3sS4ff2JEe4L4uPwJR9USV4KvlLCF67e8IHIIYsBEnvQpYLFLggpwSFTAN-sBBE3WqkbsqxFSB3dmmg5kzJ_DjBRavl1eXHVcpZFxhFLMRmiOi8nO9Dg_9cnjm5V4sZNQGlwCAAdQJFJKW9mhbaoJn1Q5KBxlTqCJ31dQYwAXzQGVjEFuF]--></g></svg>