<?xml version="1.0" encoding="us-ascii" standalone="no"?><svg xmlns="http://www.w3.org/2000/svg" xmlns:xlink="http://www.w3.org/1999/xlink" contentStyleType="text/css" height="1189px" preserveAspectRatio="none" style="width:3571px;height:1189px;background:#FFFFFF;" version="1.1" viewBox="0 0 3571 1189" width="3571px" zoomAndPan="magnify"><defs/><g><!--cluster model--><g id="cluster_model"><polygon fill="none" points="16,189.602,64,189.602,71,214.6699,2670,214.6699,2670,1182.602,16,1182.602,16,189.602" style="stroke:#000000;stroke-width:1.5;"/><line style="stroke:#000000;stroke-width:1.5;" x1="16" x2="71" y1="214.6699" y2="214.6699"/><text fill="#000000" font-family="sans-serif" font-size="14" font-weight="bold" lengthAdjust="spacing" textLength="42" x="20" y="206.5679">model</text></g><!--cluster view--><g id="cluster_view"><polygon fill="none" points="2694,260.602,2730,260.602,2737,285.6699,3554,285.6699,3554,411.602,2694,411.602,2694,260.602" style="stroke:#000000;stroke-width:1.5;"/><line style="stroke:#000000;stroke-width:1.5;" x1="2694" x2="2737" y1="285.6699" y2="285.6699"/><text fill="#000000" font-family="sans-serif" font-size="14" font-weight="bold" lengthAdjust="spacing" textLength="30" x="2698" y="277.5679">view</text></g><!--cluster controler--><g id="cluster_controler"><polygon fill="none" points="2666,6.602,2733,6.602,2740,31.6699,2854,31.6699,2854,138.602,2666,138.602,2666,6.602" style="stroke:#000000;stroke-width:1.5;"/><line style="stroke:#000000;stroke-width:1.5;" x1="2666" x2="2740" y1="31.6699" y2="31.6699"/><text fill="#000000" font-family="sans-serif" font-size="14" font-weight="bold" lengthAdjust="spacing" textLength="61" x="2670" y="23.5679">controler</text></g><!--class HintDisplayMode--><g id="elem_HintDisplayMode"><rect codeLine="6" fill="#F1F1F1" height="56.1358" id="HintDisplayMode" rx="2.5" ry="2.5" style="stroke:#181818;stroke-width:0.5;" width="314" x="2290" y="330.102"/><text fill="#000000" font-family="sans-serif" font-size="14" font-style="italic" lengthAdjust="spacing" textLength="108" x="2393" y="350.0679">HintDisplayMode</text><line style="stroke:#181818;stroke-width:0.5;" x1="2291" x2="2603" y1="359.1699" y2="359.1699"/><text fill="#000000" font-family="sans-serif" font-size="14" lengthAdjust="spacing" textLength="302" x="2296" y="378.1358">+convertHintLine(hintLine : HintLine) : Color[]</text></g><!--class ClassicMode--><g id="elem_ClassicMode"><rect codeLine="10" fill="#F1F1F1" height="56.1358" id="ClassicMode" rx="2.5" ry="2.5" style="stroke:#181818;stroke-width:0.5;" width="314" x="1941" y="603.102"/><text fill="#000000" font-family="sans-serif" font-size="14" lengthAdjust="spacing" textLength="84" x="2056" y="623.0679">ClassicMode</text><line style="stroke:#181818;stroke-width:0.5;" x1="1942" x2="2254" y1="632.1699" y2="632.1699"/><text fill="#000000" font-family="sans-serif" font-size="14" lengthAdjust="spacing" textLength="302" x="1947" y="651.1358">+convertHintLine(hintLine : HintLine) : Color[]</text></g><!--class EasyMode--><g id="elem_EasyMode"><rect codeLine="14" fill="#F1F1F1" height="56.1358" id="EasyMode" rx="2.5" ry="2.5" style="stroke:#181818;stroke-width:0.5;" width="314" x="2290" y="603.102"/><text fill="#000000" font-family="sans-serif" font-size="14" lengthAdjust="spacing" textLength="68" x="2413" y="623.0679">EasyMode</text><line style="stroke:#181818;stroke-width:0.5;" x1="2291" x2="2603" y1="632.1699" y2="632.1699"/><text fill="#000000" font-family="sans-serif" font-size="14" lengthAdjust="spacing" textLength="302" x="2296" y="651.1358">+convertHintLine(hintLine : HintLine) : Color[]</text></g><!--class Mode--><g id="elem_Mode"><rect codeLine="18" fill="#F1F1F1" height="94.2717" id="Mode" rx="2.5" ry="2.5" style="stroke:#181818;stroke-width:0.5;" width="85" x="1773.5" y="1072.602"/><text fill="#000000" font-family="sans-serif" font-size="14" lengthAdjust="spacing" textLength="38" x="1797" y="1092.5679">Mode</text><line style="stroke:#181818;stroke-width:0.5;" x1="1774.5" x2="1857.5" y1="1101.6699" y2="1101.6699"/><text fill="#000000" font-family="sans-serif" font-size="14" lengthAdjust="spacing" textLength="41" x="1779.5" y="1120.6358">+EASY</text><text fill="#000000" font-family="sans-serif" font-size="14" lengthAdjust="spacing" textLength="63" x="1779.5" y="1139.7038">+CLASSIC</text><text fill="#000000" font-family="sans-serif" font-size="14" lengthAdjust="spacing" textLength="73" x="1779.5" y="1158.7717">+NUMERIC</text></g><!--class RoundObserver--><g id="elem_RoundObserver"><rect codeLine="34" fill="#F1F1F1" height="94.2717" id="RoundObserver" rx="2.5" ry="2.5" style="stroke:#181818;stroke-width:0.5;" width="445" x="2208.5" y="847.602"/><text fill="#000000" font-family="sans-serif" font-size="14" font-style="italic" lengthAdjust="spacing" textLength="97" x="2382.5" y="867.5679">RoundObserver</text><line style="stroke:#181818;stroke-width:0.5;" x1="2209.5" x2="2652.5" y1="876.6699" y2="876.6699"/><text fill="#000000" font-family="sans-serif" font-size="14" lengthAdjust="spacing" textLength="433" x="2214.5" y="895.6358">+reactToAttempt(combination : Combination, hintLine : HintLine)</text><text fill="#000000" font-family="sans-serif" font-size="14" lengthAdjust="spacing" textLength="379" x="2214.5" y="914.7038">+reactToRoundEnd(roundWon : Boolean, score : Integer)</text><text fill="#000000" font-family="sans-serif" font-size="14" lengthAdjust="spacing" textLength="253" x="2214.5" y="933.7717">+reactToModeChanged(mode : Mode)</text></g><!--class Pawn--><g id="elem_Pawn"><rect codeLine="40" fill="#F1F1F1" height="189.6113" id="Pawn" rx="2.5" ry="2.5" style="stroke:#181818;stroke-width:0.5;" width="78" x="1207" y="799.602"/><text fill="#000000" font-family="sans-serif" font-size="14" lengthAdjust="spacing" textLength="36" x="1228" y="819.5679">Pawn</text><line style="stroke:#181818;stroke-width:0.5;" x1="1208" x2="1284" y1="828.6699" y2="828.6699"/><text fill="#000000" font-family="sans-serif" font-size="14" lengthAdjust="spacing" textLength="35" x="1213" y="847.6358">+RED</text><text fill="#000000" font-family="sans-serif" font-size="14" lengthAdjust="spacing" textLength="54" x="1213" y="866.7038">+GREEN</text><text fill="#000000" font-family="sans-serif" font-size="14" lengthAdjust="spacing" textLength="62" x="1213" y="885.7717">+YELLOW</text><text fill="#000000" font-family="sans-serif" font-size="14" lengthAdjust="spacing" textLength="42" x="1213" y="904.8396">+BLUE</text><text fill="#000000" font-family="sans-serif" font-size="14" lengthAdjust="spacing" textLength="51" x="1213" y="923.9075">+BLACK</text><text fill="#000000" font-family="sans-serif" font-size="14" lengthAdjust="spacing" textLength="66" x="1213" y="942.9754">+ORANGE</text><text fill="#000000" font-family="sans-serif" font-size="14" lengthAdjust="spacing" textLength="58" x="1213" y="962.0433">+PURPLE</text><text fill="#000000" font-family="sans-serif" font-size="14" lengthAdjust="spacing" textLength="41" x="1213" y="981.1113">+PINK</text></g><!--class Round--><g id="elem_Round"><rect codeLine="51" fill="#F1F1F1" height="170.5433" id="Round" rx="2.5" ry="2.5" style="stroke:#181818;stroke-width:0.5;" width="376" x="1101" y="545.602"/><text fill="#000000" font-family="sans-serif" font-size="14" lengthAdjust="spacing" textLength="44" x="1267" y="565.5679">Round</text><line style="stroke:#181818;stroke-width:0.5;" x1="1102" x2="1476" y1="574.6699" y2="574.6699"/><text fill="#000000" font-family="sans-serif" font-size="14" lengthAdjust="spacing" textLength="181" x="1107" y="593.6358">+Round(settings : Settings)</text><text fill="#000000" font-family="sans-serif" font-size="14" lengthAdjust="spacing" textLength="356" x="1107" y="612.7038">+checkAttempt(combination : Combination) : Boolean</text><text fill="#000000" font-family="sans-serif" font-size="14" lengthAdjust="spacing" textLength="174" x="1107" y="631.7717">+computeScore() : Integer</text><text fill="#000000" font-family="sans-serif" font-size="14" lengthAdjust="spacing" textLength="281" x="1107" y="650.8396">+addObserver(observer : RoundObserver)</text><text fill="#000000" font-family="sans-serif" font-size="14" lengthAdjust="spacing" textLength="105" x="1107" y="669.9075">-notifyAttempt()</text><text fill="#000000" font-family="sans-serif" font-size="14" lengthAdjust="spacing" textLength="364" x="1107" y="688.9754">-notifyRoundEnd(roundWon : Boolean, score : Integer)</text><text fill="#000000" font-family="sans-serif" font-size="14" lengthAdjust="spacing" textLength="150" x="1107" y="708.0433">-notifyModeChanged()</text></g><!--class Settings--><g id="elem_Settings"><rect codeLine="61" fill="#F1F1F1" height="197.6113" id="Settings" rx="2.5" ry="2.5" style="stroke:#181818;stroke-width:0.5;" width="714" x="1459" y="795.602"/><text fill="#000000" font-family="sans-serif" font-size="14" lengthAdjust="spacing" textLength="55" x="1788.5" y="815.5679">Settings</text><line style="stroke:#181818;stroke-width:0.5;" x1="1460" x2="2172" y1="824.6699" y2="824.6699"/><text fill="#000000" font-family="sans-serif" font-size="14" lengthAdjust="spacing" textLength="176" x="1465" y="843.6358">-attemptNumber : Integer</text><text fill="#000000" font-family="sans-serif" font-size="14" lengthAdjust="spacing" textLength="198" x="1465" y="862.7038">-combinationLength : Integer</text><text fill="#000000" font-family="sans-serif" font-size="14" lengthAdjust="spacing" textLength="160" x="1465" y="881.7717">-pawnNumber : Integer</text><line style="stroke:#181818;stroke-width:0.5;" x1="1460" x2="2172" y1="889.8736" y2="889.8736"/><text fill="#000000" font-family="sans-serif" font-size="14" lengthAdjust="spacing" textLength="702" x="1465" y="908.8396">+Settings(attemptNumber : Integer, combinationLength : Integer, pawnNumber : Integer, mode : Mode)</text><text fill="#000000" font-family="sans-serif" font-size="14" lengthAdjust="spacing" textLength="210" x="1465" y="927.9075">+getAttemptNumber() : Integer</text><text fill="#000000" font-family="sans-serif" font-size="14" lengthAdjust="spacing" textLength="233" x="1465" y="946.9754">+getCombinationLength() : Integer</text><text fill="#000000" font-family="sans-serif" font-size="14" lengthAdjust="spacing" textLength="192" x="1465" y="966.0433">+getPawnNumber() : Integer</text><text fill="#000000" font-family="sans-serif" font-size="14" lengthAdjust="spacing" textLength="126" x="1465" y="985.1113">+getMode() : Mode</text></g><!--class SecretCombination--><g id="elem_SecretCombination"><rect codeLine="72" fill="#F1F1F1" height="56.1358" id="SecretCombination" rx="2.5" ry="2.5" style="stroke:#181818;stroke-width:0.5;" width="576" x="969" y="1091.602"/><text fill="#000000" font-family="sans-serif" font-size="14" lengthAdjust="spacing" textLength="128" x="1193" y="1111.5679">SecretCombination</text><line style="stroke:#181818;stroke-width:0.5;" x1="970" x2="1544" y1="1120.6699" y2="1120.6699"/><text fill="#000000" font-family="sans-serif" font-size="14" lengthAdjust="spacing" textLength="564" x="975" y="1139.6358">+&#171;create&#187; SecretCombination(combinationLength : Integer, pawnNumber : Integer))</text></g><!--class Combination--><g id="elem_Combination"><rect codeLine="76" fill="#F1F1F1" height="132.4075" id="Combination" rx="2.5" ry="2.5" style="stroke:#181818;stroke-width:0.5;" width="272" x="830" y="828.602"/><text fill="#000000" font-family="sans-serif" font-size="14" lengthAdjust="spacing" textLength="86" x="923" y="848.5679">Combination</text><line style="stroke:#181818;stroke-width:0.5;" x1="831" x2="1101" y1="857.6699" y2="857.6699"/><text fill="#000000" font-family="sans-serif" font-size="14" lengthAdjust="spacing" textLength="204" x="836" y="876.6358">+Combination(pawns : Pawn[])</text><text fill="#000000" font-family="sans-serif" font-size="14" lengthAdjust="spacing" textLength="181" x="836" y="895.7038">+setPawns(pawns : Pawn[])</text><text fill="#000000" font-family="sans-serif" font-size="14" lengthAdjust="spacing" textLength="221" x="836" y="914.7717">+getPawn(index : Integer) : Pawn</text><text fill="#000000" font-family="sans-serif" font-size="14" lengthAdjust="spacing" textLength="233" x="836" y="933.8396">+getCombinationLength() : Integer</text><text fill="#000000" font-family="sans-serif" font-size="14" lengthAdjust="spacing" textLength="260" x="836" y="952.9075">+containsPawn(pawn : Pawn) : Boolean</text></g><!--class HintLine--><g id="elem_HintLine"><rect codeLine="84" fill="#F1F1F1" height="113.3396" id="HintLine" rx="2.5" ry="2.5" style="stroke:#181818;stroke-width:0.5;" width="541" x="32.5" y="838.102"/><text fill="#000000" font-family="sans-serif" font-size="14" lengthAdjust="spacing" textLength="56" x="275" y="858.0679">HintLine</text><line style="stroke:#181818;stroke-width:0.5;" x1="33.5" x2="572.5" y1="867.1699" y2="867.1699"/><text fill="#000000" font-family="sans-serif" font-size="14" lengthAdjust="spacing" textLength="529" x="38.5" y="886.1358">+HintLine(combination : Combination, secretCombination : SecretCombination)</text><text fill="#000000" font-family="sans-serif" font-size="14" lengthAdjust="spacing" textLength="205" x="38.5" y="905.2038">+getHint(index : Integer) : Hint</text><text fill="#000000" font-family="sans-serif" font-size="14" lengthAdjust="spacing" textLength="172" x="38.5" y="924.2717">+perfectMatch() : Boolean</text><text fill="#000000" font-family="sans-serif" font-size="14" lengthAdjust="spacing" textLength="180" x="38.5" y="943.3396">+hintLineLength() : Integer</text></g><!--class Game--><g id="elem_Game"><rect codeLine="91" fill="#F1F1F1" height="216.6792" id="Game" rx="2.5" ry="2.5" style="stroke:#181818;stroke-width:0.5;" width="420" x="1564" y="249.602"/><text fill="#000000" font-family="sans-serif" font-size="14" lengthAdjust="spacing" textLength="39" x="1754.5" y="269.5679">Game</text><line style="stroke:#181818;stroke-width:0.5;" x1="1565" x2="1983" y1="278.6699" y2="278.6699"/><text fill="#000000" font-family="sans-serif" font-size="14" lengthAdjust="spacing" textLength="140" x="1570" y="297.6358">-playerName : String</text><text fill="#000000" font-family="sans-serif" font-size="14" lengthAdjust="spacing" textLength="103" x="1570" y="316.7038">-score : Integer</text><line style="stroke:#181818;stroke-width:0.5;" x1="1565" x2="1983" y1="324.8057" y2="324.8057"/><text fill="#000000" font-family="sans-serif" font-size="14" lengthAdjust="spacing" textLength="115" x="1570" y="343.7717">+&#171;create&#187; Game()</text><text fill="#000000" font-family="sans-serif" font-size="14" lengthAdjust="spacing" textLength="162" x="1570" y="362.8396">+setMode(mode : Mode)</text><text fill="#000000" font-family="sans-serif" font-size="14" lengthAdjust="spacing" textLength="408" x="1570" y="381.9075">+configureGame(settings : Settings, roundNumber : Integer)</text><text fill="#000000" font-family="sans-serif" font-size="14" lengthAdjust="spacing" textLength="145" x="1570" y="400.9754">+nextRound() : Round</text><text fill="#000000" font-family="sans-serif" font-size="14" lengthAdjust="spacing" textLength="169" x="1570" y="420.0433">+getFinalScore() : Integer</text><text fill="#000000" font-family="sans-serif" font-size="14" lengthAdjust="spacing" textLength="276" x="1570" y="439.1113">+addObserver(observer : GameObserver)</text><text fill="#000000" font-family="sans-serif" font-size="14" lengthAdjust="spacing" textLength="116" x="1570" y="458.1792">-notifyGameEnd()</text></g><!--class Hint--><g id="elem_Hint"><rect codeLine="103" fill="#F1F1F1" height="94.2717" id="Hint" rx="2.5" ry="2.5" style="stroke:#181818;stroke-width:0.5;" width="121" x="673.5" y="847.602"/><text fill="#000000" font-family="sans-serif" font-size="14" lengthAdjust="spacing" textLength="28" x="720" y="867.5679">Hint</text><line style="stroke:#181818;stroke-width:0.5;" x1="674.5" x2="793.5" y1="876.6699" y2="876.6699"/><text fill="#000000" font-family="sans-serif" font-size="14" lengthAdjust="spacing" textLength="97" x="679.5" y="895.6358">+RIGHT_PLACE</text><text fill="#000000" font-family="sans-serif" font-size="14" lengthAdjust="spacing" textLength="109" x="679.5" y="914.7038">+WRONG_PLACE</text><text fill="#000000" font-family="sans-serif" font-size="14" lengthAdjust="spacing" textLength="61" x="679.5" y="933.7717">+ABSENT</text></g><!--class GameObserver--><g id="elem_GameObserver"><rect codeLine="118" fill="#F1F1F1" height="56.1358" id="GameObserver" rx="2.5" ry="2.5" style="stroke:#181818;stroke-width:0.5;" width="241" x="1512.5" y="603.102"/><text fill="#000000" font-family="sans-serif" font-size="14" lengthAdjust="spacing" textLength="101" x="1582.5" y="623.0679">GameObserver</text><line style="stroke:#181818;stroke-width:0.5;" x1="1513.5" x2="1752.5" y1="632.1699" y2="632.1699"/><text fill="#000000" font-family="sans-serif" font-size="14" lengthAdjust="spacing" textLength="229" x="1518.5" y="651.1358">+reactToGameEnd(score : Integer)</text></g><!--class GameWindow--><g id="elem_GameWindow"><rect codeLine="24" fill="#F1F1F1" height="29.0679" id="GameWindow" rx="2.5" ry="2.5" style="stroke:#181818;stroke-width:0.5;" width="99" x="2710.5" y="343.602"/><text fill="#000000" font-family="sans-serif" font-size="14" lengthAdjust="spacing" textLength="93" x="2713.5" y="363.5679">GameWindow</text></g><!--class StartWindow--><g id="elem_StartWindow"><rect codeLine="28" fill="#F1F1F1" height="29.0679" id="StartWindow" rx="2.5" ry="2.5" style="stroke:#181818;stroke-width:0.5;" width="92" x="3325" y="343.602"/><text fill="#000000" font-family="sans-serif" font-size="14" lengthAdjust="spacing" textLength="86" x="3328" y="363.5679">StartWindow</text></g><!--class EndWindow--><g id="elem_EndWindow"><rect codeLine="31" fill="#F1F1F1" height="29.0679" id="EndWindow" rx="2.5" ry="2.5" style="stroke:#181818;stroke-width:0.5;" width="86" x="3452" y="343.602"/><text fill="#000000" font-family="sans-serif" font-size="14" lengthAdjust="spacing" textLength="80" x="3455" y="363.5679">EndWindow</text></g><!--class Announcer--><g id="elem_Announcer"><rect codeLine="113" fill="#F1F1F1" height="75.2038" id="Announcer" rx="2.5" ry="2.5" style="stroke:#181818;stroke-width:0.5;" width="445" x="2844.5" y="320.602"/><text fill="#000000" font-family="sans-serif" font-size="14" lengthAdjust="spacing" textLength="74" x="3030" y="340.5679">Announcer</text><line style="stroke:#181818;stroke-width:0.5;" x1="2845.5" x2="3288.5" y1="349.6699" y2="349.6699"/><text fill="#000000" font-family="sans-serif" font-size="14" lengthAdjust="spacing" textLength="433" x="2850.5" y="368.6358">+reactToAttempt(combination : Combination, hintLine : HintLine)</text><text fill="#000000" font-family="sans-serif" font-size="14" lengthAdjust="spacing" textLength="379" x="2850.5" y="387.7038">+reactToRoundEnd(roundWon : Boolean, score : Integer)</text></g><!--class MastermindApp--><g id="elem_MastermindApp"><rect codeLine="109" fill="#F1F1F1" height="56.1358" id="MastermindApp" rx="2.5" ry="2.5" style="stroke:#181818;stroke-width:0.5;" width="155" x="2682.5" y="66.602"/><text fill="#000000" font-family="sans-serif" font-size="14" lengthAdjust="spacing" textLength="109" x="2705.5" y="86.5679">MastermindApp</text><line style="stroke:#181818;stroke-width:0.5;" x1="2683.5" x2="2836.5" y1="95.6699" y2="95.6699"/><text fill="#000000" font-family="sans-serif" font-size="14" lengthAdjust="spacing" text-decoration="underline" textLength="143" x="2688.5" y="114.6358">+main(args : String[])</text></g><!--reverse link HintDisplayMode to ClassicMode--><g id="link_HintDisplayMode_ClassicMode"><path d="M2395.79,398.862 C2323.81,454.762 2194.58,555.102 2132.78,603.092 " fill="none" id="HintDisplayMode-backto-ClassicMode" style="stroke:#181818;stroke-width:1.0;stroke-dasharray:7.0,7.0;"/><polygon fill="none" points="2391.85,393.062,2411.94,386.332,2400.44,404.122,2391.85,393.062" style="stroke:#181818;stroke-width:1.0;"/></g><!--reverse link HintDisplayMode to EasyMode--><g id="link_HintDisplayMode_EasyMode"><path d="M2447,406.522 C2447,463.432 2447,556.952 2447,602.892 " fill="none" id="HintDisplayMode-backto-EasyMode" style="stroke:#181818;stroke-width:1.0;stroke-dasharray:7.0,7.0;"/><polygon fill="none" points="2440,406.332,2447,386.332,2454,406.332,2440,406.332" style="stroke:#181818;stroke-width:1.0;"/></g><!--reverse link RoundObserver to GameWindow--><g id="link_RoundObserver_GameWindow"><path d="M2594.32,838.092 C2628.01,819.782 2660.15,796.042 2683,765.602 C2778.31,638.662 2766.45,427.942 2761.42,372.702 " fill="none" id="RoundObserver-backto-GameWindow" style="stroke:#181818;stroke-width:1.0;stroke-dasharray:7.0,7.0;"/><polygon fill="none" points="2597.03,844.562,2576.04,847.442,2590.65,832.102,2597.03,844.562" style="stroke:#181818;stroke-width:1.0;"/></g><!--reverse link Combination to SecretCombination--><g id="link_Combination_SecretCombination"><path d="M1066.91,972.932 C1120.56,1014.042 1183.16,1062.012 1221.43,1091.342 " fill="none" id="Combination-backto-SecretCombination" style="stroke:#181818;stroke-width:1.0;"/><polygon fill="none" points="1062.57,978.422,1050.95,960.702,1071.08,967.312,1062.57,978.422" style="stroke:#181818;stroke-width:1.0;"/></g><!--reverse link RoundObserver to Announcer--><g id="link_RoundObserver_Announcer"><path d="M2577.59,839.622 C2623.23,819.642 2672.44,794.662 2714,765.602 C2865.86,659.412 2994.21,473.912 3044.4,395.612 " fill="none" id="RoundObserver-backto-Announcer" style="stroke:#181818;stroke-width:1.0;stroke-dasharray:7.0,7.0;"/><polygon fill="none" points="2580.1,846.162,2558.96,847.592,2574.59,833.292,2580.1,846.162" style="stroke:#181818;stroke-width:1.0;"/></g><!--link MastermindApp to Settings--><g id="link_MastermindApp_Settings"><path codeLine="122" d="M2708.87,122.862 C2697.23,131.472 2686.19,142.082 2679,154.602 C2554,372.332 2792.27,532.102 2622,716.602 C2489.92,859.722 2381.12,753.402 2191,795.602 C2186.75,796.542 2182.48,797.502 2178.18,798.472 " fill="none" id="MastermindApp-to-Settings" style="stroke:#181818;stroke-width:1.0;stroke-dasharray:7.0,7.0;"/><polygon fill="#181818" points="2173.13,799.622,2182.79,801.5414,2178.0072,798.5207,2181.0279,793.7379,2173.13,799.622" style="stroke:#181818;stroke-width:1.0;"/><text fill="#000000" font-family="sans-serif" font-size="13" lengthAdjust="spacing" textLength="41" x="2180.8006" y="794.4282">&#171;uses&#187;</text></g><!--link Game to Settings--><g id="link_Game_Settings"><path codeLine="123" d="M1783.49,479.822 C1790.61,570.532 1800.3,693.842 1807.25,782.212 " fill="none" id="Game-Settings" style="stroke:#181818;stroke-width:1.0;"/><polygon fill="none" points="1782.45,466.622,1778.9373,472.9197,1783.3996,478.5844,1786.9123,472.2866,1782.45,466.622" style="stroke:#181818;stroke-width:1.0;"/><polygon fill="#181818" points="1808.27,795.262,1811.5554,785.9773,1807.8798,790.2772,1803.5798,786.6016,1808.27,795.262" style="stroke:#181818;stroke-width:1.0;"/><line style="stroke:#181818;stroke-width:1.0;" x1="1807.8798" x2="1807.255" y1="790.2772" y2="782.297"/><polygon fill="#000000" points="1805.6083,626.4704,1803.387,635.7179,1809.2468,635.2574,1805.6083,626.4704" style="stroke:#000000;stroke-width:1.0;"/><text fill="#000000" font-family="sans-serif" font-size="13" lengthAdjust="spacing" textLength="59" x="1815" y="636.499">Configure</text><text fill="#000000" font-family="sans-serif" font-size="13" lengthAdjust="spacing" textLength="7" x="1776.3984" y="765.9718">1</text><text fill="#000000" font-family="sans-serif" font-size="13" lengthAdjust="spacing" textLength="52" x="1753.8984" y="783.6779">-settings</text></g><!--link Settings to Mode--><g id="link_Settings_Mode"><path codeLine="124" d="M1816,1006.932 C1816,1024.992 1816,1043.052 1816,1059.222 " fill="none" id="Settings-Mode" style="stroke:#181818;stroke-width:1.0;"/><polygon fill="none" points="1816,993.742,1812,999.742,1816,1005.742,1820,999.742,1816,993.742" style="stroke:#181818;stroke-width:1.0;"/><polygon fill="#181818" points="1816,1072.322,1820,1063.322,1816,1067.322,1812,1063.322,1816,1072.322" style="stroke:#181818;stroke-width:1.0;"/><line style="stroke:#181818;stroke-width:1.0;" x1="1816" x2="1816" y1="1067.322" y2="1059.322"/><polygon fill="#000000" points="1821,1028.455,1818.0611,1037.5001,1823.9389,1037.5001,1821,1028.455" style="stroke:#000000;stroke-width:1.0;"/><text fill="#000000" font-family="sans-serif" font-size="13" lengthAdjust="spacing" textLength="54" x="1830" y="1038.499">influence</text><text fill="#000000" font-family="sans-serif" font-size="13" lengthAdjust="spacing" textLength="7" x="1790.5016" y="1042.928">1</text><text fill="#000000" font-family="sans-serif" font-size="13" lengthAdjust="spacing" textLength="39" x="1774.5016" y="1060.6341">-mode</text></g><!--link Round to Settings--><g id="link_Round_Settings"><path codeLine="125" d="M1471.04,722.432 C1514.74,744.112 1561.76,767.452 1606.59,789.692 " fill="none" id="Round-Settings" style="stroke:#181818;stroke-width:1.0;"/><polygon fill="none" points="1459.37,716.642,1462.9692,722.8906,1470.1215,721.9716,1466.5223,715.7229,1459.37,716.642" style="stroke:#181818;stroke-width:1.0;"/><polygon fill="#181818" points="1618.25,795.482,1611.9703,787.8948,1613.7724,793.2569,1608.4102,795.0589,1618.25,795.482" style="stroke:#181818;stroke-width:1.0;"/><line style="stroke:#181818;stroke-width:1.0;" x1="1613.7724" x2="1606.605" y1="793.2569" y2="789.697"/><polygon fill="#000000" points="1552.5211,754.2325,1559.3172,760.8856,1561.9298,755.6203,1552.5211,754.2325" style="stroke:#000000;stroke-width:1.0;"/><text fill="#000000" font-family="sans-serif" font-size="13" lengthAdjust="spacing" textLength="59" x="1566" y="761.499">Configure</text><text fill="#000000" font-family="sans-serif" font-size="13" lengthAdjust="spacing" textLength="7" x="1628.6738" y="766.2073">1</text><text fill="#000000" font-family="sans-serif" font-size="13" lengthAdjust="spacing" textLength="52" x="1606.1738" y="783.9133">-settings</text></g><!--link Round to SecretCombination--><g id="link_Round_SecretCombination"><path codeLine="126" d="M1304.05,730.122 C1312.57,803.282 1318.71,905.412 1303,993.602 C1297.71,1023.322 1285.85,1055.232 1275.5,1079.372 " fill="none" id="Round-SecretCombination" style="stroke:#181818;stroke-width:1.0;"/><polygon fill="#181818" points="1302.44,716.802,1299.194,723.2412,1303.8895,728.7141,1307.1355,722.2749,1302.44,716.802" style="stroke:#181818;stroke-width:1.0;"/><polygon fill="#181818" points="1270.11,1091.582,1277.3991,1084.9586,1272.1259,1087.0064,1270.0781,1081.7332,1270.11,1091.582" style="stroke:#181818;stroke-width:1.0;"/><line style="stroke:#181818;stroke-width:1.0;" x1="1272.1259" x2="1275.365" y1="1087.0064" y2="1079.687"/><polygon fill="#000000" points="1316.5926,899.9384,1320.2587,891.1628,1314.4004,890.6839,1316.5926,899.9384" style="stroke:#000000;stroke-width:1.0;"/><text fill="#000000" font-family="sans-serif" font-size="13" lengthAdjust="spacing" textLength="54" x="1326" y="899.999">conserve</text><text fill="#000000" font-family="sans-serif" font-size="13" lengthAdjust="spacing" textLength="7" x="1199.149" y="1062.1117">1</text><text fill="#000000" font-family="sans-serif" font-size="13" lengthAdjust="spacing" textLength="118" x="1143.649" y="1079.8177">-secretCombination</text></g><!--link Round to Combination--><g id="link_Round_Combination"><path codeLine="127" d="M1174.23,725.022 C1135.63,756.272 1093.12,790.682 1056.64,820.222 " fill="none" id="Round-Combination" style="stroke:#181818;stroke-width:1.0;"/><polygon fill="none" points="1184.58,716.642,1177.3997,717.3073,1175.2521,724.1912,1182.4325,723.5259,1184.58,716.642" style="stroke:#181818;stroke-width:1.0;"/><polygon fill="#181818" points="1046.52,828.412,1056.0327,825.8609,1050.4071,825.2671,1051.0009,819.6415,1046.52,828.412" style="stroke:#181818;stroke-width:1.0;"/><line style="stroke:#181818;stroke-width:1.0;" x1="1050.4071" x2="1056.62" y1="825.2671" y2="820.237"/><polygon fill="#000000" points="1147.1139,759.6011,1155.9932,756.1939,1152.2947,751.6255,1147.1139,759.6011" style="stroke:#000000;stroke-width:1.0;"/><text fill="#000000" font-family="sans-serif" font-size="13" lengthAdjust="spacing" textLength="35" x="1160" y="761.499">garde</text><text fill="#000000" font-family="sans-serif" font-size="13" lengthAdjust="spacing" textLength="33" x="1005.5423" y="799.071">1 .. 12</text><text fill="#000000" font-family="sans-serif" font-size="13" lengthAdjust="spacing" textLength="59" x="992.5423" y="816.777">-attempts</text></g><!--link Round to HintLine--><g id="link_Round_HintLine"><path codeLine="128" d="M1088,678.202 C1002.67,698.332 902.26,722.752 812,746.602 C708.7,773.902 594.35,806.692 500.24,834.372 " fill="none" id="Round-HintLine" style="stroke:#181818;stroke-width:1.0;"/><polygon fill="none" points="1100.75,675.202,1093.9946,672.6791,1089.0676,677.9446,1095.823,680.4674,1100.75,675.202" style="stroke:#181818;stroke-width:1.0;"/><polygon fill="#181818" points="487.69,838.062,497.4533,839.3575,492.4865,836.65,495.194,831.6832,487.69,838.062" style="stroke:#181818;stroke-width:1.0;"/><line style="stroke:#181818;stroke-width:1.0;" x1="492.4865" x2="500.165" y1="836.65" y2="834.397"/><polygon fill="#000000" points="812.1677,757.739,821.6641,758.2566,820.1547,752.5759,812.1677,757.739" style="stroke:#000000;stroke-width:1.0;"/><text fill="#000000" font-family="sans-serif" font-size="13" lengthAdjust="spacing" textLength="35" x="826" y="761.499">garde</text><text fill="#000000" font-family="sans-serif" font-size="13" lengthAdjust="spacing" textLength="33" x="462.9807" y="808.4023">1 .. 12</text><text fill="#000000" font-family="sans-serif" font-size="13" lengthAdjust="spacing" textLength="53" x="452.9807" y="826.1083">-hintLine</text></g><!--link Round to Hint--><g id="link_Round_Hint"><path codeLine="129" d="M1100.85,670.232 C1008.01,695.332 897.84,735.042 812,795.602 C794.06,808.252 778.14,826.172 765.44,843.222 " fill="none" id="Round-to-Hint" style="stroke:#181818;stroke-width:1.0;stroke-dasharray:7.0,7.0;"/><polygon fill="#181818" points="762.28,847.542,770.8219,842.6393,765.2319,843.5063,764.3648,837.9163,762.28,847.542" style="stroke:#181818;stroke-width:1.0;"/><text fill="#000000" font-family="sans-serif" font-size="13" lengthAdjust="spacing" textLength="41" x="722.4713" y="835.9646">&#171;uses&#187;</text></g><!--link HintLine to Hint--><g id="link_HintLine_Hint"><path codeLine="130" d="M586.92,894.602 C613.53,894.602 638.6,894.602 660.23,894.602 " fill="none" id="HintLine-Hint" style="stroke:#181818;stroke-width:1.0;"/><polygon fill="none" points="573.51,894.602,579.51,898.602,585.51,894.602,579.51,890.602,573.51,894.602" style="stroke:#181818;stroke-width:1.0;"/><polygon fill="#181818" points="673.25,894.602,664.25,890.602,668.25,894.602,664.25,898.602,673.25,894.602" style="stroke:#181818;stroke-width:1.0;"/><line style="stroke:#181818;stroke-width:1.0;" x1="668.25" x2="660.25" y1="894.602" y2="894.602"/><polygon fill="#000000" points="601,882.455,591.9549,879.5161,591.9549,885.3939,601,882.455" style="stroke:#000000;stroke-width:1.0;"/><text fill="#000000" font-family="sans-serif" font-size="13" lengthAdjust="spacing" textLength="50" x="605" y="887.499">contient</text><text fill="#000000" font-family="sans-serif" font-size="13" lengthAdjust="spacing" textLength="26" x="635.5965" y="910.2286">2 .. 6</text><text fill="#000000" font-family="sans-serif" font-size="13" lengthAdjust="spacing" textLength="34" x="631.5965" y="927.9346">-hints</text></g><!--link Game to Round--><g id="link_Game_Round"><path codeLine="131" d="M1569.71,473.252 C1530.48,495.172 1489.88,517.862 1452.16,538.932 " fill="none" id="Game-Round" style="stroke:#181818;stroke-width:1.0;"/><polygon fill="#181818" points="1581.27,466.792,1574.0809,466.2292,1570.7963,472.6488,1577.9854,473.2116,1581.27,466.792" style="stroke:#181818;stroke-width:1.0;"/><polygon fill="#181818" points="1440.55,545.422,1450.3584,544.53,1444.9164,542.9858,1446.4605,537.5438,1440.55,545.422" style="stroke:#181818;stroke-width:1.0;"/><line style="stroke:#181818;stroke-width:1.0;" x1="1444.9164" x2="1451.895" y1="542.9858" y2="539.082"/><polygon fill="#000000" points="1516.6351,508.8938,1525.9648,507.0475,1523.0977,501.9163,1516.6351,508.8938" style="stroke:#000000;stroke-width:1.0;"/><text fill="#000000" font-family="sans-serif" font-size="13" lengthAdjust="spacing" textLength="50" x="1530" y="511.499">contient</text><text fill="#000000" font-family="sans-serif" font-size="13" lengthAdjust="spacing" textLength="26" x="1414.254" y="516.1315">1 .. 5</text><text fill="#000000" font-family="sans-serif" font-size="13" lengthAdjust="spacing" textLength="47" x="1403.754" y="533.8375">-rounds</text></g><!--link Game to GameObserver--><g id="link_Game_GameObserver"><path codeLine="132" d="M1711.8,478.652 C1690.78,519.052 1668.76,561.362 1653.36,590.962 " fill="none" id="Game-GameObserver" style="stroke:#181818;stroke-width:1.0;"/><polygon fill="none" points="1717.87,466.992,1711.5518,470.4677,1712.33,477.6366,1718.6482,474.161,1717.87,466.992" style="stroke:#181818;stroke-width:1.0;"/><polygon fill="#181818" points="1647.19,602.822,1654.8932,596.6851,1649.4983,598.3867,1647.7968,592.9918,1647.19,602.822" style="stroke:#181818;stroke-width:1.0;"/><line style="stroke:#181818;stroke-width:1.0;" x1="1649.4983" x2="1653.195" y1="598.3867" y2="591.292"/><text fill="#000000" font-family="sans-serif" font-size="13" lengthAdjust="spacing" textLength="7" x="1609.1067" y="573.589">*</text><text fill="#000000" font-family="sans-serif" font-size="13" lengthAdjust="spacing" textLength="63" x="1581.1067" y="591.295">-observers</text></g><!--link Combination to Pawn--><g id="link_Combination_Pawn"><path codeLine="133" d="M1115.75,894.602 C1143.66,894.602 1171.05,894.602 1193.46,894.602 " fill="none" id="Combination-Pawn" style="stroke:#181818;stroke-width:1.0;"/><polygon fill="none" points="1102.31,894.602,1108.31,898.602,1114.31,894.602,1108.31,890.602,1102.31,894.602" style="stroke:#181818;stroke-width:1.0;"/><polygon fill="#181818" points="1206.72,894.602,1197.72,890.602,1201.72,894.602,1197.72,898.602,1206.72,894.602" style="stroke:#181818;stroke-width:1.0;"/><line style="stroke:#181818;stroke-width:1.0;" x1="1201.72" x2="1193.72" y1="894.602" y2="894.602"/><polygon fill="#000000" points="1119.5,882.455,1128.5451,885.3939,1128.5451,879.5161,1119.5,882.455" style="stroke:#000000;stroke-width:1.0;"/><text fill="#000000" font-family="sans-serif" font-size="13" lengthAdjust="spacing" textLength="55" x="1133.5" y="887.499">compose</text><text fill="#000000" font-family="sans-serif" font-size="13" lengthAdjust="spacing" textLength="26" x="1164.4326" y="910.7925">2 .. 6</text><text fill="#000000" font-family="sans-serif" font-size="13" lengthAdjust="spacing" textLength="43" x="1155.9326" y="928.4985">-pawns</text></g><!--link MastermindApp to Game--><g id="link_MastermindApp_Game"><path codeLine="134" d="M2669.22,107.112 C2570.69,120.642 2409.17,145.892 2273,181.602 C2181.04,205.722 2081.86,239.032 1996.33,270.152 " fill="none" id="MastermindApp-Game" style="stroke:#181818;stroke-width:1.0;"/><polygon fill="#181818" points="2682.4,105.312,2675.9175,102.1532,2670.5085,106.9221,2676.991,110.0809,2682.4,105.312" style="stroke:#181818;stroke-width:1.0;"/><polygon fill="#181818" points="1984.09,274.632,1993.9166,275.2943,1988.7853,272.9131,1991.1664,267.7818,1984.09,274.632" style="stroke:#181818;stroke-width:1.0;"/><line style="stroke:#181818;stroke-width:1.0;" x1="1988.7853" x2="1996.295" y1="272.9131" y2="270.167"/><polygon fill="#000000" points="2378.1406,165.6324,2387.6234,166.3587,2386.2393,160.6462,2378.1406,165.6324" style="stroke:#000000;stroke-width:1.0;"/><text fill="#000000" font-family="sans-serif" font-size="13" lengthAdjust="spacing" textLength="26" x="2392" y="169.499">joue</text><text fill="#000000" font-family="sans-serif" font-size="13" lengthAdjust="spacing" textLength="7" x="2007.8229" y="249.9136">1</text><text fill="#000000" font-family="sans-serif" font-size="13" lengthAdjust="spacing" textLength="38" x="1992.3229" y="267.6196">-game</text></g><!--link MastermindApp to EndWindow--><g id="link_MastermindApp_EndWindow"><path codeLine="135" d="M2837.72,95.292 C2995.51,96.262 3346,106.992 3435,181.602 C3482.98,221.822 3492.69,302.192 3494.58,338.512 " fill="none" id="MastermindApp-to-EndWindow" style="stroke:#181818;stroke-width:1.0;stroke-dasharray:7.0,7.0;"/><polygon fill="#181818" points="3494.81,343.542,3498.3936,334.3682,3494.581,338.5472,3490.402,334.7346,3494.81,343.542" style="stroke:#181818;stroke-width:1.0;"/><text fill="#000000" font-family="sans-serif" font-size="13" lengthAdjust="spacing" textLength="41" x="3445.9219" y="331.769">&#171;uses&#187;</text></g><!--link MastermindApp to GameWindow--><g id="link_MastermindApp_GameWindow"><path codeLine="136" d="M2760,122.602 C2760,175.642 2760,292.262 2760,338.082 " fill="none" id="MastermindApp-to-GameWindow" style="stroke:#181818;stroke-width:1.0;stroke-dasharray:7.0,7.0;"/><polygon fill="#181818" points="2760,343.312,2764,334.312,2760,338.312,2756,334.312,2760,343.312" style="stroke:#181818;stroke-width:1.0;"/><text fill="#000000" font-family="sans-serif" font-size="13" lengthAdjust="spacing" textLength="41" x="2711.4406" y="331.7385">&#171;uses&#187;</text></g><!--link MastermindApp to StartWindow--><g id="link_MastermindApp_StartWindow"><path codeLine="137" d="M2837.54,105.682 C2984.15,125.042 3289,166.792 3307,181.602 C3355.69,221.672 3367.34,302.112 3370.12,338.492 " fill="none" id="MastermindApp-to-StartWindow" style="stroke:#181818;stroke-width:1.0;stroke-dasharray:7.0,7.0;"/><polygon fill="#181818" points="3370.47,343.522,3373.8167,334.2592,3370.1127,338.5348,3365.8372,334.8308,3370.47,343.522" style="stroke:#181818;stroke-width:1.0;"/><text fill="#000000" font-family="sans-serif" font-size="13" lengthAdjust="spacing" textLength="41" x="3321.4523" y="331.7414">&#171;uses&#187;</text></g><!--link Round to RoundObserver--><g id="link_Round_RoundObserver"><path codeLine="138" d="M1489.73,715.222 C1491.49,715.692 1493.25,716.152 1495,716.602 C1796.55,793.972 1889.39,718.472 2191,795.602 C2235.55,806.992 2282.77,824.902 2323.43,842.312 " fill="none" id="Round-RoundObserver" style="stroke:#181818;stroke-width:1.0;"/><polygon fill="none" points="1477.17,711.682,1481.8635,717.1566,1488.7221,714.9298,1484.0287,709.4552,1477.17,711.682" style="stroke:#181818;stroke-width:1.0;"/><polygon fill="#181818" points="2335.55,847.572,2328.8836,840.3222,2330.9626,845.5832,2325.7016,847.6621,2335.55,847.572" style="stroke:#181818;stroke-width:1.0;"/><line style="stroke:#181818;stroke-width:1.0;" x1="2330.9626" x2="2323.62" y1="845.5832" y2="842.397"/><text fill="#000000" font-family="sans-serif" font-size="13" lengthAdjust="spacing" textLength="7" x="2284.2845" y="818.2101">*</text><text fill="#000000" font-family="sans-serif" font-size="13" lengthAdjust="spacing" textLength="63" x="2256.2845" y="835.9161">-observers</text></g><!--link GameWindow to HintDisplayMode--><g id="link_GameWindow_HintDisplayMode"><path codeLine="139" d="M2697.17,358.102 C2673.76,358.102 2645.94,358.102 2617.49,358.102 " fill="none" id="GameWindow-HintDisplayMode" style="stroke:#181818;stroke-width:1.0;"/><polygon fill="none" points="2710.41,358.102,2704.41,354.102,2698.41,358.102,2704.41,362.102,2710.41,358.102" style="stroke:#181818;stroke-width:1.0;"/><polygon fill="#181818" points="2604.42,358.102,2613.42,362.102,2609.42,358.102,2613.42,354.102,2604.42,358.102" style="stroke:#181818;stroke-width:1.0;"/><line style="stroke:#181818;stroke-width:1.0;" x1="2609.42" x2="2617.42" y1="358.102" y2="358.102"/><polygon fill="#000000" points="2632.25,345.955,2641.2951,348.8939,2641.2951,343.0161,2632.25,345.955" style="stroke:#000000;stroke-width:1.0;"/><text fill="#000000" font-family="sans-serif" font-size="13" lengthAdjust="spacing" textLength="35" x="2646.25" y="350.999">utilise</text><text fill="#000000" font-family="sans-serif" font-size="13" lengthAdjust="spacing" textLength="7" x="2637.7846" y="372.7431">1</text><text fill="#000000" font-family="sans-serif" font-size="13" lengthAdjust="spacing" textLength="58" x="2612.2846" y="390.4491">-displayer</text></g><!--link Announcer to HintDisplayMode--><g id="link_Announcer_HintDisplayMode"><path codeLine="140" d="M3017.29,311.832 C2971.72,272.812 2900.35,219.872 2827,197.602 C2743.64,172.302 2712.57,167.022 2631,197.602 C2566.28,221.862 2509.36,280.332 2476.56,319.582 " fill="none" id="Announcer-HintDisplayMode" style="stroke:#181818;stroke-width:1.0;"/><polygon fill="none" points="3027.18,320.422,3025.2748,313.4671,3018.1222,312.5508,3020.0274,319.5057,3027.18,320.422" style="stroke:#181818;stroke-width:1.0;"/><polygon fill="#181818" points="2468.16,329.862,2476.955,325.4293,2471.3262,325.9922,2470.7633,320.3634,2468.16,329.862" style="stroke:#181818;stroke-width:1.0;"/><line style="stroke:#181818;stroke-width:1.0;" x1="2471.3262" x2="2476.39" y1="325.9922" y2="319.792"/><polygon fill="#000000" points="2683.0005,164.5266,2692.0868,167.3356,2692.0026,161.4584,2683.0005,164.5266" style="stroke:#000000;stroke-width:1.0;"/><text fill="#000000" font-family="sans-serif" font-size="13" lengthAdjust="spacing" textLength="35" x="2697" y="169.499">utilise</text><text fill="#000000" font-family="sans-serif" font-size="13" lengthAdjust="spacing" textLength="7" x="2434.2635" y="300.6362">1</text><text fill="#000000" font-family="sans-serif" font-size="13" lengthAdjust="spacing" textLength="58" x="2408.7635" y="318.3422">-displayer</text></g><!--SRC=[nLVVRzew57xFNs7n5BeMtKswUq08YR9SXaOfWbRLj4sJcxZWkyH1jhEELVlVT-muZkE4zJ9fkZmWsyVdrtS-7plY2sLxp766X3oa1FuvZMMHfO6maZZ5GamaIEuBIUPnpZRqEq5_1JkQ44HOaQ6Co5sU2BEIxUK1bh9xmaKGK2O9Vy0nGLcUa7Jm5XRUKB5FyU4A5j1JWE3t0e7ThuHB9LvGHiAT6Q0XgjRwC9xcQSu_V0f-184Ep5YTgZ6DjKMQxLEI4IR57tKPON7uq_vATBNHXgLeidblXjF5PBEPJyriUNiLhM5cO_rAoUDWXZDoHrcIFxQ3NUS5Iwxl1U4GsrFWQMuavjAeFdcoY2Mkn2zqmx2Dd1CSoviS-AHu4iPvTayPbZHdEdCxEqTTw3IDQ0yGHSZLu4wRkCppb61G5t7EbUuSmjeIxgagDASxpBOa2LMui54jzJtGL_YHsT3NqHipcgsZQ6d6xwF5ulhEJ2uNjv4TJgRlpFXwFLdEAi7gThrQsCby-SudbawhzgfceI1IKhOL4EV63AkCuXs9lpoBPx_6nh8nsyE1tYYSmdwDb17Zn1OlpAig3b6ZgcK85uZbaZuSgXYQgwSNgT9qQzJtGQfGi3XL2o4kmrWMgW7Lji-HWys2iAtSkS8zLBgjqg166TiHyqRw2nzcHvSZayAMo8bhlQCgi6Ngk-ZUjh9-kkKg9orHWpQwCMzuGkIR92onxRQMLFYFHg229HcFKKixF1dwVglWRZ2LJzU5igAEXyhxmwVgS8WI2754R70AeOsHRuvti_4qqA6zIqoPq1QLFsF5FNfUKbLZindPk-4NZL6qYZDiG-vag6nsPQZMpQuzT6uIooiiupApPgkeMd57wbv2wgOnoG3LuG8aVAcM849uGB2jaNZdlaqXPITqYgZPsZgD6lC7kYquqGeTNV8SwRxJufVHPy3hiiFsg-PM0_SFO9cUs1zL7DtjKKbK7_Jl65M6kjlFPszlFg_WxgXkYBlrzNBMM9bSRgBbJOsyuXs7Sl715HPm1sTGwyb-Rsq-2GcKY7-W3DWPObxYeykXJaBpKfym1Y34aCjpBuN_-pxlODwnrqO5VQUD8-WD1cFK6uqAGSHutFDkdS1XUtvn0JjVVcGN5VtytHe9mrCq2ZnXhQy4FVUvDqIKFQG5WNfOlV9ry9jEI-KpHzbh6xsZ5y1GyKp3YyPTeG1WwEKhi6akI1jGqyWMy-Gv2nLJUdwN7A9nQQ2XtbaftTmyzLovUQNSl3PUXBkzJ55IeBmDK5Vuh8xlRr3KxBIQPGp7LClKpa2hwX5MqILiq8Qg6Qo-ldhkgtIe7t2vKCKznk6wq5jmvZe6zN_pGXNYF_A_-U8_IQl- -ZX9pVdqw61B9wID3XNudpxrcKdAZpF2UqU-s8Qea3IbGW7ajSNVj1By1000]--></g></svg>